<?xml version="1.0" encoding="UTF-8" standalone="no"?>
<svg
   xmlns:dc="http://purl.org/dc/elements/1.1/"
   xmlns:cc="http://creativecommons.org/ns#"
   xmlns:rdf="http://www.w3.org/1999/02/22-rdf-syntax-ns#"
   xmlns:svg="http://www.w3.org/2000/svg"
   xmlns="http://www.w3.org/2000/svg"
   xmlns:sodipodi="http://sodipodi.sourceforge.net/DTD/sodipodi-0.dtd"
   xmlns:inkscape="http://www.inkscape.org/namespaces/inkscape"
   width="210mm"
   height="297mm"
   viewBox="0 0 210 297"
   version="1.1"
   id="svg8"
   inkscape:version="1.0.2-2 (e86c870879, 2021-01-15)"
   sodipodi:docname="infinity.svg">
  <defs
     id="defs2" />
  <sodipodi:namedview
     id="base"
     pagecolor="#ffffff"
     bordercolor="#666666"
     borderopacity="1.0"
     inkscape:pageopacity="0.0"
     inkscape:pageshadow="2"
     inkscape:zoom="0.98994949"
     inkscape:cx="462.32396"
     inkscape:cy="568.54289"
     inkscape:document-units="mm"
     inkscape:current-layer="layer1"
     inkscape:document-rotation="0"
     showgrid="false"
     inkscape:window-width="1920"
     inkscape:window-height="1057"
     inkscape:window-x="1358"
     inkscape:window-y="-8"
     inkscape:window-maximized="1" />
  <metadata
     id="metadata5">
    <rdf:RDF>
      <cc:Work
         rdf:about="">
        <dc:format>image/svg+xml</dc:format>
        <dc:type
           rdf:resource="http://purl.org/dc/dcmitype/StillImage" />
        <dc:title></dc:title>
      </cc:Work>
    </rdf:RDF>
  </metadata>
  <g
     inkscape:label="Layer 1"
     inkscape:groupmode="layer"
     id="layer1">
    <path
       style="fill:none;stroke:#000000;stroke-width:0.264583px;stroke-linecap:butt;stroke-linejoin:miter;stroke-opacity:1"
       d="M199.38244,84.383183C199.38244,84.383183,192.20089000000002,83.53273800000001,190.97247000000002,83.62723100000001C189.74405000000002,83.721721,189.46056000000002,82.11532600000001,182.65699,80.31994C175.85342,78.524551,167.06547,77.7686,167.06547,77.7686C167.06547,77.7686,161.77381,72.09895700000001,161.49032,71.24851000000001C161.20684,70.39806500000002,158.6555,70.30357200000002,157.71056,70.49255800000002C156.76561999999998,70.68154700000002,128.79539,63.02753000000001,128.79539,63.02753000000001C128.79539,63.02753000000001,124.54315,67.27976000000001,115.09375,65.48437400000002C105.64434,63.688988000000016,97.423363,60.57068300000002,94.966516,58.96428400000002C92.509672,57.35788500000002,93.076635,58.01934300000002,93.076635,58.01934300000002L99.69121799999999,68.22470100000002C99.69121799999999,68.22470100000002,100.54167,68.98065500000003,97.895832,69.26413500000002C95.249999,69.54761700000003,83.72172499999999,68.60267700000003,78.335565,67.18526700000002C72.949405,65.76785700000002,74.461308,66.33482200000003,75.973214,68.22470100000002C77.485117,70.11458200000003,83.438242,74.55580100000003,83.438242,74.55580100000003C83.438242,74.55580100000003,76.445683,77.95758900000003,66.523808,76.16220100000002C56.601933,74.36681500000003,57.641368,73.89434300000002,57.641368,73.89434300000002C57.641368,73.89434300000002,55.940475,73.98884300000002,60.192708,77.29613100000002C64.44494,80.60342200000002,66.901784,80.50892600000002,66.901784,80.98139800000001C66.901784,81.45386700000002,61.79910700000001,84.47767600000002,53.29464200000001,84.47767600000002C44.790177000000014,84.47767600000002,46.58556500000001,84.66666600000002,42.14434400000001,83.81621800000002C37.703125000000014,82.96577300000003,52.63318300000001,90.14732100000002,52.63318300000001,90.14732100000002C52.63318300000001,90.14732100000002,52.53869300000001,92.79315500000001,41.010416000000006,93.73809300000002C29.482142000000007,94.68303400000002,27.214285000000004,91.84821400000003,27.214285000000004,91.84821400000003C27.214285000000004,91.84821400000003,24.662946000000005,91.94270400000002,27.308785000000004,93.73809300000002C29.954618000000004,95.53348100000002,37.703129000000004,99.97470000000003,37.703129000000004,99.97470000000003C37.703129000000004,99.97470000000003,30.521580000000004,104.13244000000003,23.056551000000006,104.13244000000003C15.591522000000005,104.13244000000003,15.969498000000005,102.52604000000004,15.969498000000005,102.52604000000004C15.969498000000005,102.52604000000004,17.764885000000007,105.36086000000003,22.584081000000005,108.29018000000003C27.403278000000004,111.21949000000004,22.584081000000005,111.69196000000004,19.371284000000003,112.92038000000004C16.158486000000003,114.14881000000004,13.890629000000004,115.37723000000004,9.638396600000004,114.52678000000003C5.386164700000004,113.67634000000002,9.165926500000003,116.70015000000004,9.165926500000003,116.70015000000004C9.165926500000003,116.70015000000004,14.268605000000003,120.76339000000004,19.087801000000002,121.04687000000004C23.906998,121.33036000000004,20.505212000000004,124.25967000000004,20.505212000000004,124.25967000000004L18.615331000000005,125.39360000000005C18.615331000000005,125.39360000000005,17.292415000000005,126.81101000000005,19.087801000000006,126.33854000000005C20.883188000000008,125.86607000000005,23.340034000000006,124.07068000000005,23.623516000000006,124.73214000000006C23.906998000000005,125.39360000000006,23.056551000000006,126.71652000000006,23.245539000000004,129.07887000000005C23.434528000000004,131.44122000000004,23.245539000000004,134.65402000000006,22.489587000000004,135.50446000000005C21.733635000000003,136.35491000000005,22.678575000000002,136.26041000000006,22.678575000000002,136.26041000000006C22.678575000000002,136.26041000000006,23.245539,134.84301000000008,28.348219,135.03199000000006C33.450896,135.22098000000005,34.962801999999996,133.61458000000007,35.246284,134.08705000000006C35.529764,134.55952000000005,34.206848,138.24479000000005,33.923368,142.21354000000005C33.63988500000001,146.18229000000005,34.017858000000004,147.78869000000006,32.883931000000004,149.30059000000006C31.750004000000004,150.81250000000006,30.805063000000004,152.13541000000006,33.63988500000001,150.43452000000005C36.47470500000001,148.73363000000006,35.813247000000004,147.03274000000005,39.59301000000001,147.12723000000005C43.37277100000001,147.22173000000006,45.92411100000001,147.78869000000006,46.49107600000001,147.22173000000006C47.058038,146.65477000000007,45.45163900000001,151.66296000000006,45.924111,154.30879000000007C46.39658,156.95462000000006,41.766372000000004,161.7738200000001,41.766372000000004,161.7738200000001C41.766372000000004,161.7738200000001,41.48288900000001,162.62426000000008,44.60119400000001,160.6398900000001C47.719497000000004,158.6555100000001,53.86161100000001,159.4114700000001,53.86161100000001,159.4114700000001C53.86161100000001,159.4114700000001,57.452385000000014,159.03349000000009,59.15327700000001,158.37203000000008C60.85417000000001,157.71057000000008,61.51562800000001,158.84450000000007,61.04315900000001,159.50596000000007C60.57068700000001,160.16742000000008,60.47619400000001,161.30135000000007,60.47619400000001,164.79763000000008C60.47619400000001,168.2939100000001,59.15327700000001,172.5461400000001,58.39732600000001,172.5461400000001C57.641372000000004,172.5461400000001,58.775302,173.01861000000008,61.23214600000001,171.50671000000008C63.688992000000006,169.99480000000008,68.69717700000001,171.6012100000001,70.20908,171.12873000000008C71.720986,170.6562600000001,73.043902,168.4829000000001,73.232889,170.18379000000007C73.421878,171.88468000000006,70.492562,176.79837000000006,74.272326,183.69644000000008C78.052086,190.59450000000007,79.941968,193.05135000000007,79.941968,193.05135000000007H75.500746L75.028277,223.57292000000007C75.028277,223.57292000000007,73.988843,225.36831000000006,72.949409,222.43900000000008C71.909972,219.5096800000001,65.200896,217.05283000000009,59.53125300000001,217.14733000000007C53.86161100000001,217.24183000000008,47.719497000000004,217.99777000000006,43.750747000000004,223.85641000000007C39.781997000000004,229.71504000000007,37.986611,237.27456000000006,42.42783000000001,243.41667000000007C46.86905200000001,249.55879000000007,51.78274300000001,253.24406000000008,61.043159,252.86608000000007C70.303576,252.48810000000006,68.980659,249.93676000000008,68.980659,249.93676000000008L69.169646,236.3296200000001C69.169646,236.3296200000001,64.917413,234.6287300000001,64.066968,234.6287300000001C63.216521,234.6287300000001,61.421135,233.4948000000001,67.468753,233.5892900000001C73.516371,233.6837900000001,79.75297900000001,233.8727700000001,79.75297900000001,233.8727700000001C79.75297900000001,233.8727700000001,78.05208600000002,235.1012000000001,76.54018,236.3296200000001C75.028277,237.5580400000001,75.973218,253.9055100000001,75.973218,253.9055100000001C75.973218,253.9055100000001,67.37426,258.9137000000001,59.153277,258.5357200000001C50.932295,258.1577500000001,43.183784,257.40179000000006,37.230659,248.61385000000007C31.277535000000004,239.82590000000008,31.088545000000003,231.88840000000008,33.450896,226.02977000000007C35.813247,220.17114000000007,40.348962,215.35194000000007,45.546135,213.84004000000007C50.743306,212.32813000000007,54.428576,211.47769000000008,61.137652,211.85566000000009C67.846729,212.2336400000001,74.366819,213.55656000000008,74.366819,213.55656000000008L73.138396,216.39138000000008C73.138396,216.39138000000008,64.44494399999999,212.42263000000008,56.318455,213.08408000000009C48.191968,213.7455400000001,42.900301999999996,216.8638500000001,40.254469,218.56474000000009C37.608635,220.26563000000007,35.057294999999996,233.49480000000008,35.057294999999996,233.49480000000008C35.057294999999996,233.49480000000008,34.49032699999999,237.36905000000007,37.041667,241.43229000000008C39.593005999999995,245.4955400000001,40.821428999999995,247.47991000000007,45.829612999999995,251.16518000000008C50.83779799999999,254.85045000000008,64.633929,254.18899000000008,64.633929,254.18899000000008L72.382441,251.63765000000006L72.193452,236.99107000000006L76.16220299999999,234.62872000000007L82.020833,234.91220000000007C82.020833,234.91220000000007,80.69791699999999,221.96652000000006,92.131697,215.54092000000009C103.56548000000001,209.11533000000009,114.05432,211.57217000000009,114.05432,211.57217000000009C114.05432,211.57217000000009,122.46429,212.98958000000007,126.71652,217.1473200000001C130.96875,221.30506000000008,133.04762,225.6517900000001,133.04762,225.6517900000001C133.04762,225.6517900000001,135.97692999999998,233.1168200000001,134.46502999999998,240.1093800000001C132.95313,247.1019300000001,125.58258999999998,254.1889900000001,125.58258999999998,254.1889900000001C125.58258999999998,254.1889900000001,121.61383999999998,257.8742600000001,114.81026999999997,258.4412200000001C108.00669999999998,259.0081800000001,97.32886899999997,258.4412200000001,92.03720299999998,254.3779800000001C86.74553599999997,250.31473000000008,83.24925599999997,244.3616100000001,82.77678599999997,239.5424100000001C82.30431599999997,234.7232100000001,83.91071399999997,240.6763400000001,83.91071399999997,240.6763400000001C83.91071399999997,240.6763400000001,84.28869099999997,246.7239600000001,93.36011899999997,250.8817000000001C102.43154999999997,255.0394300000001,102.62053999999996,253.6220200000001,102.62053999999996,253.6220200000001L102.24255999999997,213.1785700000001C102.24255999999997,213.1785700000001,92.98214299999997,214.0290200000001,88.72991099999997,222.25000000000009C84.47767899999997,230.47098000000008,86.08407799999998,238.69196000000008,86.08407799999998,238.69196000000008C86.08407799999998,238.69196000000008,87.02901799999998,245.7790200000001,92.69866099999997,248.61384000000007C98.36830399999997,251.44866000000007,102.14806999999998,252.20461000000006,102.14806999999998,252.20461000000006L102.33704999999998,253.81101000000007L104.51041999999998,253.90551000000008L104.03794999999998,212.98958000000007C104.03794999999998,212.98958000000007,105.83332999999998,212.23363000000006,106.58928999999998,212.70610000000008C107.34523999999998,213.17857000000006,107.06175999999998,252.4881000000001,107.06175999999998,252.4881000000001L105.17187999999997,253.05506000000008L104.98288999999997,253.8110100000001L110.46353999999997,253.9055100000001V252.6770800000001L108.66814999999997,252.0156300000001C108.66814999999997,252.0156300000001,108.47916999999997,213.08408000000009,108.76264999999997,212.7061000000001C109.04612999999996,212.3281300000001,111.59746999999996,212.1391400000001,111.97544999999997,213.46205000000012C112.35341999999997,214.78497000000013,112.25892999999996,252.29911000000013,112.25892999999996,252.29911000000013L110.65252999999997,253.05506000000014L110.74702999999997,254.09449000000015L115.56622999999996,253.14955000000015L115.37723999999996,251.44866000000016L113.86533999999996,251.63765000000015L113.67634999999996,213.74554000000015C113.67634999999996,213.74554000000015,121.80283999999996,217.90327000000013,124.25967999999996,225.65179000000015C126.71652999999996,233.40030000000016,125.29911999999996,237.84152000000014,125.29911999999996,237.84152000000014C125.29911999999996,237.84152000000014,123.22024999999996,244.73958000000013,120.10193999999996,247.85789000000014C116.98363999999995,250.97619000000014,115.75521999999995,251.73214000000013,115.75521999999995,251.73214000000013C115.75521999999995,251.73214000000013,114.71577999999995,253.52753000000013,117.45610999999995,252.11012000000014C120.19643999999995,250.69271000000015,125.77158999999995,246.62946000000014,128.32292999999996,240.67634000000012C130.87426999999997,234.72321000000014,128.13393999999997,224.3288700000001,128.13393999999997,224.3288700000001C128.13393999999997,224.3288700000001,128.03943999999996,221.3050600000001,123.03125999999996,217.9032700000001C118.02307999999996,214.5014900000001,115.66071999999996,213.9345200000001,115.66071999999996,213.9345200000001L134.08705999999995,214.8794600000001C134.08705999999995,214.8794600000001,134.08705999999995,212.7061000000001,135.22098999999994,211.1942000000001C136.35491999999994,209.6822900000001,135.78795999999994,211.1942000000001,137.01637999999994,211.1942000000001C138.24479999999994,211.1942000000001,167.82143999999994,211.4776800000001,169.99479999999994,211.1942000000001C172.16816999999995,210.9107100000001,174.24702999999994,209.5878000000001,174.34152999999995,210.5327400000001C174.43602999999996,211.4776800000001,175.66443999999996,217.9032700000001,174.53051999999994,218.6592300000001C173.39658999999995,219.4151800000001,173.11310999999995,215.54092000000009,171.88467999999995,215.4464300000001C170.65625999999995,215.3519300000001,158.27753999999996,215.4464300000001,158.27753999999996,215.4464300000001C158.27753999999996,215.4464300000001,157.14360999999997,249.74777000000012,157.89955999999995,250.97619000000012C158.65551999999994,252.20461000000012,158.75000999999995,253.3385400000001,163.66369999999995,253.6220200000001C168.57738999999995,253.9055100000001,158.65551999999994,255.7008900000001,157.23810999999995,254.1889900000001C155.82068999999996,252.6770800000001,155.06473999999994,252.20461000000012,155.06473999999994,252.20461000000012V214.5014900000001C155.06473999999994,214.5014900000001,155.34821999999994,212.8950900000001,159.12798999999995,212.9895800000001C162.90774999999996,213.0840800000001,173.30208999999996,212.80060000000012,173.30208999999996,212.80060000000012L173.86905999999996,217.43080000000012L173.77455999999995,210.9107100000001L136.35491999999994,211.1942000000001L136.63839999999993,213.2730700000001C136.63839999999993,213.2730700000001,134.18155999999993,220.2656300000001,134.18155999999993,217.99777000000012C134.18155999999993,215.7299100000001,134.08705999999992,215.5409200000001,134.08705999999992,215.5409200000001L134.5595299999999,217.9032700000001C134.5595299999999,217.9032700000001,136.5439099999999,214.7849700000001,139.2842399999999,214.7849700000001C142.0245599999999,214.7849700000001,151.4739699999999,214.7849700000001,151.4739699999999,214.7849700000001C151.4739699999999,214.7849700000001,152.7968899999999,249.9367600000001,151.66295999999988,251.3541700000001C150.5290299999999,252.77158000000009,149.6785799999999,253.5275300000001,148.26116999999988,253.8110100000001C146.8437599999999,254.0944900000001,146.46577999999988,254.7559500000001,147.59970999999987,255.0394300000001C148.73363999999987,255.3229200000001,151.75744999999986,254.28348000000008,153.36384999999987,253.4330400000001C154.97024999999988,252.5825900000001,157.71057999999988,254.6614600000001,157.71057999999988,254.6614600000001L150.05655999999988,255.13393000000008L155.15923999999987,252.4881000000001L154.40327999999988,214.7849700000001C154.40327999999988,214.7849700000001,154.30877999999987,212.6116100000001,148.54464999999988,212.6116100000001C142.78051999999988,212.6116100000001,136.26042999999987,213.2730700000001,136.26042999999987,213.2730700000001L134.27604999999988,218.3757400000001L133.61458999999988,214.9739600000001L122.18080999999988,214.0290200000001C122.18080999999988,214.0290200000001,106.58929999999988,206.56399000000008,91.47024799999988,215.44643000000008C76.35120099999989,224.32887000000008,75.21727199999988,211.57217000000009,75.21727199999988,211.57217000000009L75.59524799999988,192.86235000000008L80.31995099999989,192.9568500000001C80.31995099999989,192.9568500000001,80.88691499999989,180.95610000000008,84.28870099999989,178.3102700000001C87.6904859999999,175.6644300000001,87.31250999999989,175.75893000000008,87.87947399999989,176.7983600000001C88.44643899999988,177.8378000000001,89.86384899999989,181.33408000000009,91.0922719999999,182.18452000000008C92.3206949999999,183.03497000000007,91.9427179999999,182.84598000000008,91.9427179999999,182.84598000000008C91.9427179999999,182.84598000000008,92.0372179999999,170.7507400000001,96.0059629999999,167.15997000000007C99.9747129999999,163.56920000000008,97.8958429999999,163.66369000000006,101.5811099999999,169.42783000000009C105.2663799999999,175.19196000000008,105.17188999999989,172.16816000000009,105.17188999999989,172.16816000000009C105.17188999999989,172.16816000000009,101.20313999999989,162.05729000000008,105.45536999999989,156.57664000000008C109.70759999999989,151.09598000000008,110.46354999999988,150.34003000000007,110.46354999999988,150.34003000000007L114.52679999999988,159.22247000000007C114.52679999999988,159.22247000000007,114.52679999999988,146.74926000000008,117.92857999999988,143.44196000000008C121.33036999999989,140.13467000000009,120.85789999999989,141.3631000000001,120.85789999999989,141.3631000000001C120.85789999999989,141.3631000000001,121.51935999999989,143.9144300000001,123.31473999999989,145.52083000000007C125.11012999999988,147.12723000000008,125.01563999999989,146.74926000000008,125.01563999999989,146.74926000000008C125.01563999999989,146.74926000000008,124.54315999999989,138.24479000000008,129.2678699999999,133.04762000000008C133.99256999999992,127.85045000000008,138.2447999999999,123.97619000000009,143.2529899999999,124.73214000000007C148.2611699999999,125.48810000000007,150.2455499999999,127.94494000000007,150.9069999999999,129.92932000000008C151.5684599999999,131.9136900000001,149.2061099999999,134.74851000000007,149.2061099999999,134.74851000000007C149.2061099999999,134.74851000000007,149.86756999999992,134.55952000000008,153.4583399999999,133.70908000000006C157.0491199999999,132.85863000000006,157.1436099999999,134.08705000000006,157.1436099999999,134.08705000000006C157.1436099999999,134.08705000000006,155.3482199999999,139.47321000000005,156.8601299999999,140.51265000000006C158.3720299999999,141.55208000000007,158.2775399999999,140.79613000000006,158.2775399999999,140.79613000000006C158.2775399999999,140.79613000000006,157.6160799999999,138.52827000000005,159.3169699999999,137.67783000000006C161.0178699999999,136.82738000000006,165.0811099999999,135.31548000000006,167.8214399999999,132.66964000000004C170.5617699999999,130.02381000000005,170.4672699999999,125.86607000000005,170.4672699999999,125.86607000000005C170.4672699999999,125.86607000000005,175.0029899999999,122.74777000000005,175.8534299999999,117.64509000000005C176.70387999999988,112.54241000000005,173.7745599999999,115.09375000000006,173.7745599999999,115.09375000000006C173.7745599999999,115.09375000000006,169.8058099999999,118.96801000000006,169.1443599999999,119.15699000000006C168.4828999999999,119.34598000000007,166.9709899999999,116.03869000000006,166.9709899999999,116.03869000000006C166.9709899999999,116.03869000000006,165.93154999999987,114.99926000000006,165.08109999999988,115.18824000000006C164.2306599999999,115.37723000000007,162.7187499999999,117.73958000000006,162.05728999999988,117.83408000000007C161.39582999999988,117.92858000000007,162.4352699999999,113.77083000000007,161.2068499999999,112.92039000000007C159.9784199999999,112.06994000000007,158.37201999999988,114.81027000000007,156.0096699999999,114.81027000000007C153.6473199999999,114.81027000000007,154.2142899999999,109.80208000000007,152.60788999999988,108.95164000000007C151.00148999999988,108.10119000000007,150.8124999999999,108.85714000000007,150.8124999999999,108.85714000000007C150.8124999999999,108.85714000000007,151.37945999999988,110.27455000000008,149.5840799999999,110.36905000000007C147.7886899999999,110.46355000000007,148.0721699999999,109.04613000000008,148.0721699999999,109.04613000000008C148.0721699999999,109.04613000000008,149.1116099999999,108.19568000000008,148.1666699999999,106.87277000000007C147.2217299999999,105.54985000000008,146.3712799999999,105.54985000000008,146.3712799999999,105.54985000000008C146.3712799999999,105.54985000000008,145.7098199999999,108.19568000000008,141.6465799999999,106.49479000000008C137.58332999999988,104.79390000000008,140.41814999999988,101.39211000000007,141.3630999999999,100.82515000000008C142.3080399999999,100.25818000000008,143.15847999999988,99.97470300000008,143.15847999999988,99.97470300000008C143.15847999999988,99.97470300000008,142.9694899999999,100.91964000000007,144.95386999999988,102.99851000000008C146.9382399999999,105.07738000000008,146.8437499999999,105.36086000000009,146.8437499999999,105.36086000000009C146.8437499999999,105.36086000000009,148.63913999999988,102.80952000000009,149.77306999999988,102.14807000000009C150.90698999999987,101.48661000000008,152.0409199999999,103.65997000000009,152.0409199999999,103.65997000000009C152.0409199999999,103.65997000000009,153.83630999999988,106.49479000000008,155.5371999999999,106.40030000000009C157.2380999999999,106.30580000000009,158.1830399999999,103.65997000000009,159.3169599999999,103.18750000000009C160.4508899999999,102.71503000000008,161.20684999999992,103.75446000000008,161.3013399999999,104.51042000000008C161.3958399999999,105.26637000000008,161.4903299999999,107.81771000000008,162.5297599999999,107.81771000000008C163.5691999999999,107.81771000000008,165.4590799999999,105.36086000000007,166.5930099999999,104.51042000000008C167.7269299999999,103.65997000000009,169.7113099999999,104.98289000000008,169.5223199999999,106.30580000000008C169.3333299999999,107.62872000000007,168.5773799999999,109.32961000000007,170.0892899999999,109.42411000000007C171.6011899999999,109.51861000000007,173.68005999999988,109.14063000000007,175.3809499999999,107.72321000000007C177.0818499999999,106.30580000000006,178.0267899999999,106.11682000000006,177.8377999999999,107.15625000000007C177.6488099999999,108.19568000000007,175.85341999999991,110.74702000000008,175.1919599999999,111.59747000000007C174.5305099999999,112.44792000000007,173.8690499999999,112.63690000000007,176.0424099999999,112.73140000000008C178.2157699999999,112.82590000000008,180.8616099999999,112.63690000000008,182.9404799999999,109.51860000000008C185.0193499999999,106.40030000000007,185.0193499999999,104.60491000000007,185.0193499999999,104.60491000000007C185.0193499999999,104.60491000000007,185.7752999999999,104.88839000000007,188.0431599999999,102.90402000000007C190.3110099999999,100.91964000000007,190.40550999999988,99.78571400000007,190.40550999999988,99.78571400000007C190.40550999999988,99.78571400000007,194.1852699999999,97.70684500000007,195.1302099999999,94.30506000000007C196.0751499999999,90.90327400000007,195.8861599999999,92.79315500000007,196.9255999999999,91.75372000000007C197.9650299999999,90.71428600000007,202.02826999999988,84.47767900000007,198.1540199999999,84.19419700000007C194.2797599999999,83.91071400000007,189.9330399999999,83.24925600000007,189.9330399999999,83.24925600000007C189.9330399999999,83.24925600000007,185.0193499999999,80.13095300000008,175.2864599999999,78.99702400000007C165.5535699999999,77.86309500000007,165.5535699999999,76.54017900000007,164.6086299999999,75.02827400000007C163.6636899999999,73.51636900000007,156.57663999999988,80.60342300000006,156.57663999999988,80.60342300000006C156.57663999999988,80.60342300000006,152.0409199999999,79.56398800000007,151.09597999999988,79.94196400000007C150.15103999999988,80.31994100000007,150.71800999999988,81.54836300000007,152.7023799999999,82.30431600000007C154.68675999999988,83.06026800000006,156.7656299999999,84.47767900000007,157.2380999999999,83.43824400000007C157.71056999999988,82.39881000000007,156.6711299999999,80.60342300000006,156.6711299999999,80.60342300000006L164.0416699999999,74.65029800000006C164.0416699999999,74.65029800000006,165.3645799999999,77.01264900000007,166.6874999999999,77.20163700000006C168.0104199999999,77.39062500000006,183.6019299999999,79.75297600000006,186.3422599999999,81.26488100000006C189.0825899999999,82.77678600000006,192.4843799999999,83.72172600000006,195.4136899999999,83.81622000000006C198.34300999999988,83.91071000000005,199.3824399999999,84.38318300000006,199.3824399999999,84.38318300000006Z"       id="path28"
       sodipodi:nodetypes="cscssscscsscc" />
  </g>
</svg>
